HIERARCHY
ROOT Hips
{
	OFFSET 0.000000 83.214638 0.000000
	CHANNELS 6 Xposition Yposition Zposition Xrotation Yrotation Zrotation
	JOINT Pelvis
	{
		OFFSET 0.000000 0.000000 0.000000
		CHANNELS 3 Xrotation Yrotation Zrotation
		JOINT LeftUpLeg
		{
			OFFSET 8.479700 -4.795502 -0.379100
			CHANNELS 3 Xrotation Yrotation Zrotation
			JOINT LeftLeg
			{
				OFFSET 0.024144 -32.555107 0.112900
				CHANNELS 3 Xrotation Yrotation Zrotation
				JOINT LeftFoot
				{
					OFFSET -0.024144 -32.638630 -3.012600
					CHANNELS 3 Xrotation Yrotation Zrotation
					JOINT LeftToeBase
					{
						OFFSET 0.970200 -13.225400 11.864200
						CHANNELS 3 Xrotation Yrotation Zrotation
						End Site
						{
							OFFSET 0.000000 12.319262 0.000000
						}
					}
					JOINT LFootTongue
					{
						OFFSET 1.142400 -1.059800 6.665200
						CHANNELS 3 Xrotation Yrotation Zrotation
						End Site
						{
							OFFSET 0.000000 12.319262 0.000000
						}
					}
				}
				JOINT LeftPantLeg
				{
					OFFSET 0.918482 -16.533964 -2.284700
					CHANNELS 3 Xrotation Yrotation Zrotation
					End Site
					{
						OFFSET 0.350399 24.744368 0.000000
					}
				}
			}
		}
		JOINT RightUpLeg
		{
			OFFSET -8.479700 -4.795502 -0.379100
			CHANNELS 3 Xrotation Yrotation Zrotation
			JOINT RightLeg
			{
				OFFSET -0.023144 -32.555092 0.112900
				CHANNELS 3 Xrotation Yrotation Zrotation
				JOINT RightFoot
				{
					OFFSET 0.023144 -32.638641 -3.012700
					CHANNELS 3 Xrotation Yrotation Zrotation
					JOINT RightToeBase
					{
						OFFSET -0.970200 -13.225400 11.864200
						CHANNELS 3 Xrotation Yrotation Zrotation
						End Site
						{
							OFFSET 0.000000 12.319244 0.000000
						}
					}
					JOINT RFootTongue
					{
						OFFSET -1.142200 -1.059800 6.665200
						CHANNELS 3 Xrotation Yrotation Zrotation
						End Site
						{
							OFFSET 0.000000 12.319243 0.000000
						}
					}
				}
				JOINT RightPantLeg
				{
					OFFSET -0.919482 -16.533978 -2.284800
					CHANNELS 3 Xrotation Yrotation Zrotation
					End Site
					{
						OFFSET -0.350400 24.744419 0.000000
					}
				}
			}
		}
	}
	JOINT Spine
	{
		OFFSET 0.000000 7.722000 1.166200
		CHANNELS 3 Xrotation Yrotation Zrotation
		JOINT Spine1
		{
			OFFSET 0.000000 12.024101 0.248800
			CHANNELS 3 Xrotation Yrotation Zrotation
			JOINT Spine2
			{
				OFFSET 0.000000 11.502998 -0.491200
				CHANNELS 3 Xrotation Yrotation Zrotation
				JOINT Neck
				{
					OFFSET 0.000000 18.430702 -3.123100
					CHANNELS 3 Xrotation Yrotation Zrotation
					JOINT Head
					{
						OFFSET 0.000000 9.051102 1.034000
						CHANNELS 3 Xrotation Yrotation Zrotation
						JOINT HairB
						{
							OFFSET 0.208400 24.786102 24.822300
							CHANNELS 3 Xrotation Yrotation Zrotation
							End Site
							{
								OFFSET 0.000000 32.263779 0.000000
							}
						}
						JOINT HairA
						{
							OFFSET -7.081100 24.428299 23.196600
							CHANNELS 3 Xrotation Yrotation Zrotation
							End Site
							{
								OFFSET 0.000000 32.263779 0.000000
							}
						}
						JOINT Hat
						{
							OFFSET 16.728800 15.048294 -15.439601
							CHANNELS 3 Xrotation Yrotation Zrotation
							End Site
							{
								OFFSET 0.000000 32.263779 0.000000
							}
						}
					}
				}
				JOINT LeftShoulder
				{
					OFFSET 6.197800 13.665199 -4.064700
					CHANNELS 3 Xrotation Yrotation Zrotation
					JOINT LeftArm
					{
						OFFSET 7.778100 -0.187103 -1.709300
						CHANNELS 3 Xrotation Yrotation Zrotation
						JOINT LeftForeArm
						{
							OFFSET 22.049376 0.000000 0.000000
							CHANNELS 3 Xrotation Yrotation Zrotation
							JOINT LeftHand
							{
								OFFSET 23.009392 0.000000 0.000000
								CHANNELS 3 Xrotation Yrotation Zrotation
								JOINT LeftHandThumb1
								{
									OFFSET 3.507191 -2.063065 3.133727
									CHANNELS 3 Xrotation Yrotation Zrotation
									JOINT LeftHandThumb2
									{
										OFFSET 3.101337 -1.790558 1.790558
										CHANNELS 3 Xrotation Yrotation Zrotation
										JOINT LeftHandThumb3
										{
											OFFSET 3.058640 -1.765907 1.765906
											CHANNELS 3 Xrotation Yrotation Zrotation
											End Site
											{
												OFFSET -0.415260 3.926476 -0.049563
											}
										}
									}
								}
								JOINT LeftHandIndex1
								{
									OFFSET 11.334419 -0.901459 3.706815
									CHANNELS 3 Xrotation Yrotation Zrotation
									JOINT LeftHandIndex2
									{
										OFFSET 3.283112 0.000000 0.000000
										CHANNELS 3 Xrotation Yrotation Zrotation
										JOINT LeftHandIndex3
										{
											OFFSET 3.323853 0.000000 0.000000
											CHANNELS 3 Xrotation Yrotation Zrotation
											End Site
											{
												OFFSET -1.135597 3.097809 0.402452
											}
										}
									}
								}
								JOINT LeftHandMiddle1
								{
									OFFSET 11.335861 0.000000 0.000000
									CHANNELS 3 Xrotation Yrotation Zrotation
									JOINT LeftHandMiddle2
									{
										OFFSET 3.410492 0.000000 0.000000
										CHANNELS 3 Xrotation Yrotation Zrotation
										JOINT LeftHandMiddle3
										{
											OFFSET 3.312172 0.000000 0.000000
											CHANNELS 3 Xrotation Yrotation Zrotation
											End Site
											{
												OFFSET -1.150200 3.080154 0.400270
											}
										}
									}
								}
								JOINT LeftHandRing1
								{
									OFFSET 11.514786 -0.013176 -3.003090
									CHANNELS 3 Xrotation Yrotation Zrotation
									JOINT LeftHandRing2
									{
										OFFSET 3.053307 0.000000 0.000000
										CHANNELS 3 Xrotation Yrotation Zrotation
										JOINT LeftHandRing3
										{
											OFFSET 3.295807 0.000000 0.000000
											CHANNELS 3 Xrotation Yrotation Zrotation
											End Site
											{
												OFFSET -1.281006 3.013344 0.375733
											}
										}
									}
								}
								JOINT LeftHandPinky1
								{
									OFFSET 10.518692 -0.960396 -5.730441
									CHANNELS 3 Xrotation Yrotation Zrotation
									JOINT LeftHandPinky2
									{
										OFFSET 2.861649 0.000000 0.000000
										CHANNELS 3 Xrotation Yrotation Zrotation
										JOINT LeftHandPinky3
										{
											OFFSET 2.863380 0.000000 0.000000
											CHANNELS 3 Xrotation Yrotation Zrotation
											End Site
											{
												OFFSET -0.843597 2.711159 0.369971
											}
										}
									}
								}
							}
							JOINT LSleeve
							{
								OFFSET 6.676277 -0.344902 -1.011730
								CHANNELS 3 Xrotation Yrotation Zrotation
								End Site
								{
									OFFSET 0.000000 14.885353 0.000000
								}
							}
						}
					}
				}
				JOINT RightShoulder
				{
					OFFSET -6.197800 13.665199 -4.064700
					CHANNELS 3 Xrotation Yrotation Zrotation
					JOINT RightArm
					{
						OFFSET -7.778100 -0.187103 -1.709300
						CHANNELS 3 Xrotation Yrotation Zrotation
						JOINT RightForeArm
						{
							OFFSET -22.049376 0.000000 0.000000
							CHANNELS 3 Xrotation Yrotation Zrotation
							JOINT RightHand
							{
								OFFSET -23.009392 0.000000 0.000000
								CHANNELS 3 Xrotation Yrotation Zrotation
								JOINT RightHandThumb1
								{
									OFFSET -3.507191 -2.063065 3.133727
									CHANNELS 3 Xrotation Yrotation Zrotation
									JOINT RightHandThumb2
									{
										OFFSET -3.101337 -1.790558 1.790558
										CHANNELS 3 Xrotation Yrotation Zrotation
										JOINT RightHandThumb3
										{
											OFFSET -3.058640 -1.765907 1.765906
											CHANNELS 3 Xrotation Yrotation Zrotation
											End Site
											{
												OFFSET 0.415260 3.926476 -0.049563
											}
										}
									}
								}
								JOINT RightHandIndex1
								{
									OFFSET -11.334419 -0.901459 3.706815
									CHANNELS 3 Xrotation Yrotation Zrotation
									JOINT RightHandIndex2
									{
										OFFSET -3.283112 0.000000 0.000000
										CHANNELS 3 Xrotation Yrotation Zrotation
										JOINT RightHandIndex3
										{
											OFFSET -3.323853 0.000000 0.000000
											CHANNELS 3 Xrotation Yrotation Zrotation
											End Site
											{
												OFFSET 1.135597 3.097809 0.402452
											}
										}
									}
								}
								JOINT RightHandMiddle1
								{
									OFFSET -11.335861 0.000000 0.000000
									CHANNELS 3 Xrotation Yrotation Zrotation
									JOINT RightHandMiddle2
									{
										OFFSET -3.410492 0.000000 0.000000
										CHANNELS 3 Xrotation Yrotation Zrotation
										JOINT RightHandMiddle3
										{
											OFFSET -3.312172 0.000000 0.000000
											CHANNELS 3 Xrotation Yrotation Zrotation
											End Site
											{
												OFFSET 1.150200 3.080154 0.400270
											}
										}
									}
								}
								JOINT RightHandRing1
								{
									OFFSET -11.514786 -0.013176 -3.003090
									CHANNELS 3 Xrotation Yrotation Zrotation
									JOINT RightHandRing2
									{
										OFFSET -3.053307 0.000000 0.000000
										CHANNELS 3 Xrotation Yrotation Zrotation
										JOINT RightHandRing3
										{
											OFFSET -3.295807 0.000000 0.000000
											CHANNELS 3 Xrotation Yrotation Zrotation
											End Site
											{
												OFFSET 1.281006 3.013344 0.375733
											}
										}
									}
								}
								JOINT RightHandPinky1
								{
									OFFSET -10.518692 -0.960396 -5.730441
									CHANNELS 3 Xrotation Yrotation Zrotation
									JOINT RightHandPinky2
									{
										OFFSET -2.861649 0.000000 0.000000
										CHANNELS 3 Xrotation Yrotation Zrotation
										JOINT RightHandPinky3
										{
											OFFSET -2.863380 0.000000 0.000000
											CHANNELS 3 Xrotation Yrotation Zrotation
											End Site
											{
												OFFSET 0.843597 2.711159 0.369971
											}
										}
									}
								}
							}
							JOINT RSleeve
							{
								OFFSET -6.676277 -0.344902 -1.011730
								CHANNELS 3 Xrotation Yrotation Zrotation
								End Site
								{
									OFFSET 0.000000 14.885353 0.000000
								}
							}
						}
					}
				}
				JOINT Backpack
				{
					OFFSET 0.000000 -2.471497 36.677502
					CHANNELS 3 Xrotation Yrotation Zrotation
					End Site
					{
						OFFSET 0.000000 20.427315 0.000000
					}
				}
				JOINT Hood
				{
					OFFSET 0.000000 18.754097 -10.431000
					CHANNELS 3 Xrotation Yrotation Zrotation
					JOINT Hood1
					{
						OFFSET 0.000000 -5.011002 -7.685901
						CHANNELS 3 Xrotation Yrotation Zrotation
						End Site
						{
							OFFSET 0.000000 9.175140 0.000000
						}
					}
				}
				JOINT LHoodieString
				{
					OFFSET 5.250500 16.397697 3.089900
					CHANNELS 3 Xrotation Yrotation Zrotation
					JOINT LHoodieString1
					{
						OFFSET 0.257700 -6.364304 3.694600
						CHANNELS 3 Xrotation Yrotation Zrotation
						JOINT LHoodieString2
						{
							OFFSET 0.000000 -9.643799 2.679100
							CHANNELS 3 Xrotation Yrotation Zrotation
							End Site
							{
								OFFSET 0.000000 10.009018 0.000000
							}
						}
					}
				}
				JOINT RHoodieString
				{
					OFFSET -5.250500 16.397697 3.089900
					CHANNELS 3 Xrotation Yrotation Zrotation
					JOINT RHoodieString1
					{
						OFFSET -0.257700 -6.364304 3.694600
						CHANNELS 3 Xrotation Yrotation Zrotation
						JOINT RHoodieString2
						{
							OFFSET 0.000000 -9.643799 2.679100
							CHANNELS 3 Xrotation Yrotation Zrotation
							End Site
							{
								OFFSET 0.000000 10.009018 0.000000
							}
						}
					}
				}
			}
			JOINT LBackpack_Strap
			{
				OFFSET 15.223200 -7.719803 -6.610900
				CHANNELS 3 Xrotation Yrotation Zrotation
				End Site
				{
					OFFSET 0.000000 16.040596 0.000000
				}
			}
			JOINT RBackpack_Strap
			{
				OFFSET -15.223000 -7.719803 -6.610900
				CHANNELS 3 Xrotation Yrotation Zrotation
				End Site
				{
					OFFSET 0.000000 16.040596 0.000000
				}
			}
		}
	}
	JOINT BoyFacialAnim_Joint
	{
		OFFSET 1.000000 -82.208099 -1.550900
		CHANNELS 3 Xrotation Yrotation Zrotation
		End Site
		{
			OFFSET 0.000000 30.012791 0.000000
		}
	}
}
MOTION
Frames: 4
Frame Time: 0.033333
0.094781 46.095634 0.032978 -34.612062 8.827687 3.211645 -0.000003 0.000000 -0.000000 -65.120909 -1.240814 25.720093 99.344944 -7.562595 -0.346294 -1.546001 -0.126755 1.398541 0.000000 0.000001 -0.000000 0.000000 0.000001 -0.000000 0.000000 -0.000001 -0.000001 -59.887467 -0.723491 -29.991221 105.456878 -0.059607 0.285907 -12.849731 -0.564895 -0.907947 0.000000 -0.000000 0.000000 0.000000 -0.000000 0.000000 0.000000 -0.000001 0.000000 17.619871 -1.221713 -6.162567 6.747102 -0.332971 -1.306491 6.747864 -0.323903 -1.302735 7.516732 3.497316 4.453763 8.417022 15.030132 4.168240 -0.000001 0.000000 -0.000000 -0.000001 0.000000 -0.000000 -0.000001 0.000000 -0.000000 2.221277 -5.057116 -2.862919 -27.285223 -49.194779 -75.487722 -0.000023 -23.700989 -0.000019 33.936758 -3.269975 12.888447 -14.994567 0.850790 7.437748 12.044260 28.272149 3.560099 0.000002 -0.000000 -0.000001 1.317505 5.977203 -38.143253 1.643743 4.069781 -43.972225 -0.000000 -0.000001 -0.000002 2.384460 7.019804 -52.813205 1.645871 4.071962 -44.002186 0.000000 0.000000 -0.000001 2.849655 7.336129 -58.333722 1.649614 4.075856 -44.055116 -0.000001 -0.000001 -0.000004 3.670976 7.753563 -67.379666 1.655990 4.082422 -44.144663 -0.000001 -0.000001 0.000001 0.000000 -0.000001 0.000001 -0.327747 15.688347 14.394917 -40.211257 -7.123801 53.052487 0.000020 37.828036 -0.000016 55.830427 -1.388179 -7.472001 -8.645192 5.612868 -8.726107 3.905490 -21.525073 -11.491980 0.000002 0.000001 -0.000001 -1.244836 6.626277 8.391350 0.119401 -1.048895 12.988118 0.000001 0.000000 0.000002 0.028095 -0.505476 0.708243 0.279289 -1.590086 19.923216 0.000003 -0.000000 0.000001 0.051759 -2.096127 -2.282693 0.227704 -1.439874 17.972321 0.000001 0.000001 -0.000001 -0.288868 -11.164733 -2.527864 0.052851 -0.700368 8.630472 0.000000 -0.000002 -0.000000 0.000000 -0.000000 0.000000 0.000000 0.000001 -0.000001 0.000000 0.000001 -0.000001 0.000000 0.000001 -0.000001 0.000000 0.000001 -0.000001 0.000000 0.000001 -0.000001 0.000000 0.000001 -0.000002 0.000000 0.000001 -0.000001 0.000000 0.000001 -0.000001 0.000000 0.000001 -0.000002 0.000001 -0.000000 0.000000 0.000001 -0.000000 0.000000 -0.000003 0.000000 -0.000000 
0.094769 46.095398 0.031658 -34.611434 8.829332 3.213578 0.000001 -0.000001 -0.000000 -65.123634 -1.235698 25.718422 99.344145 -7.552056 -0.346050 -1.547116 -0.127495 1.404072 -0.000000 -0.000001 -0.000000 -0.000000 -0.000001 -0.000000 0.000000 0.000001 -0.000001 -59.888670 -0.721479 -29.990090 105.455880 -0.095461 0.288807 -12.847228 -0.565892 -0.903520 -0.000000 -0.000000 -0.000000 -0.000000 -0.000000 -0.000000 -0.000000 -0.000001 -0.000000 17.626572 -1.223385 -6.165681 6.754401 -0.333789 -1.306570 6.755179 -0.325164 -1.303054 7.523099 3.490480 4.459452 8.467496 14.964892 4.192035 0.000001 -0.000001 -0.000000 0.000001 -0.000001 -0.000000 0.000001 -0.000001 -0.000000 2.221285 -5.055215 -2.865118 -27.260622 -49.178434 -75.457444 0.000011 -23.730510 0.000022 33.954404 -3.259170 12.881943 -14.994574 0.850795 7.437747 12.044246 28.272170 3.560091 0.000001 -0.000001 0.000001 1.317509 5.977207 -38.143253 1.643707 4.069776 -43.972218 -0.000001 0.000003 -0.000001 2.384452 7.019795 -52.813208 1.645868 4.071955 -44.002179 0.000000 -0.000002 -0.000004 2.849648 7.336140 -58.333736 1.649612 4.075852 -44.055109 -0.000001 0.000000 -0.000004 3.670998 7.753568 -67.379666 1.655991 4.082409 -44.144657 -0.000001 0.000001 0.000003 0.000001 -0.000001 0.000003 -0.327222 15.684017 14.398631 -40.226399 -7.117720 53.056793 0.000024 37.839637 -0.000024 55.830079 -1.388865 -7.468408 -8.645194 5.612857 -8.726116 3.905498 -21.525044 -11.491979 0.000002 -0.000003 -0.000001 -1.244830 6.626274 8.391345 0.119396 -1.048883 12.988122 -0.000000 -0.000001 0.000003 0.028094 -0.505510 0.708232 0.279298 -1.590066 19.923223 -0.000001 0.000000 -0.000000 0.051759 -2.096149 -2.282697 0.227706 -1.439859 17.972321 -0.000001 0.000001 0.000001 -0.288864 -11.164735 -2.527868 0.052848 -0.700362 8.630475 -0.000002 -0.000002 -0.000000 0.000000 -0.000001 -0.000000 -0.000000 0.000000 0.000001 -0.000000 0.000000 0.000001 -0.000000 0.000000 0.000001 -0.000000 0.000000 0.000001 -0.000000 0.000000 0.000002 0.000000 -0.000000 0.000002 -0.000000 0.000000 0.000001 -0.000000 0.000000 0.000002 0.000000 -0.000000 0.000002 0.000000 0.000000 -0.000000 0.000000 0.000000 -0.000000 0.000001 -0.000001 -0.000000 
0.094709 46.094574 0.030106 -34.611465 8.818740 3.207805 -0.000001 0.000000 0.000000 -65.121366 -1.239723 25.723995 99.345183 -7.537645 -0.345747 -1.549023 -0.127458 1.402365 -0.000000 0.000001 -0.000000 -0.000000 0.000001 -0.000000 -0.000000 -0.000002 0.000000 -59.895466 -0.728621 -29.983485 105.454535 -0.134489 0.291863 -12.844318 -0.565396 -0.909602 -0.000000 -0.000000 0.000000 -0.000000 -0.000000 0.000000 -0.000000 -0.000000 0.000000 17.629323 -1.224412 -6.171905 6.761883 -0.334115 -1.306560 6.762663 -0.325827 -1.303198 7.530086 3.482287 4.467765 8.532262 14.886911 4.220378 -0.000001 0.000000 -0.000000 -0.000001 0.000000 -0.000000 -0.000001 0.000000 -0.000000 2.221385 -5.054866 -2.863596 -27.247585 -49.166331 -75.437390 0.000005 -23.789602 -0.000004 33.959602 -3.227171 12.870979 -14.994579 0.850794 7.437750 12.044259 28.272161 3.560096 -0.000000 -0.000001 0.000002 1.317503 5.977215 -38.143249 1.643750 4.069757 -43.972225 0.000000 0.000002 -0.000002 2.384447 7.019801 -52.813205 1.645874 4.071978 -44.002196 -0.000001 -0.000001 -0.000002 2.849653 7.336135 -58.333716 1.649621 4.075848 -44.055116 -0.000000 -0.000001 0.000003 3.670980 7.753568 -67.379666 1.655995 4.082424 -44.144660 0.000000 0.000000 -0.000002 -0.000001 -0.000003 0.000004 -0.327958 15.686764 14.396637 -40.253173 -7.116833 53.063757 -0.000015 37.813399 0.000032 55.836786 -1.373017 -7.475752 -8.645200 5.612848 -8.726120 3.905497 -21.525059 -11.491981 -0.000001 0.000000 0.000000 -1.244835 6.626269 8.391347 0.119400 -1.048887 12.988115 -0.000001 0.000000 0.000002 0.028093 -0.505480 0.708242 0.279293 -1.590098 19.923220 0.000001 0.000001 -0.000000 0.051756 -2.096152 -2.282699 0.227707 -1.439861 17.972318 -0.000001 -0.000001 0.000002 -0.288875 -11.164754 -2.527868 0.052853 -0.700344 8.630479 -0.000000 -0.000001 -0.000000 -0.000001 -0.000000 -0.000001 -0.000000 0.000000 0.000001 -0.000000 0.000000 0.000001 -0.000000 0.000000 0.000001 -0.000000 0.000000 0.000001 -0.000000 0.000000 0.000001 -0.000000 0.000000 0.000000 -0.000000 0.000000 0.000001 -0.000000 0.000000 0.000001 -0.000000 0.000000 0.000000 -0.000000 0.000000 0.000000 -0.000000 0.000000 0.000000 -0.000001 0.000000 0.000000 
0.094560 46.094261 0.028133 -34.616311 8.809722 3.206872 0.000001 0.000001 0.000000 -65.113402 -1.238600 25.726497 99.344091 -7.527566 -0.345502 -1.551097 -0.127294 1.404658 -0.000000 -0.000001 0.000000 -0.000000 -0.000001 0.000000 0.000000 0.000002 -0.000001 -59.895630 -0.730655 -29.980989 105.451024 -0.117105 0.290623 -12.836091 -0.567202 -0.919294 -0.000000 0.000003 0.000000 -0.000000 0.000003 0.000000 -0.000000 -0.000000 0.000000 17.628715 -1.222687 -6.180270 6.768059 -0.333959 -1.306526 6.768833 -0.325526 -1.303161 7.538294 3.475740 4.473981 8.615045 14.829034 4.254927 -0.000001 0.000002 -0.000000 -0.000001 0.000002 -0.000000 -0.000001 0.000002 -0.000000 2.221438 -5.056908 -2.859161 -27.253046 -49.166355 -75.433600 0.000005 -23.792640 0.000009 33.950835 -3.219461 12.872134 -14.994565 0.850783 7.437741 12.044259 28.272153 3.560098 -0.000002 -0.000001 -0.000000 1.317509 5.977202 -38.143260 1.643735 4.069785 -43.972205 -0.000000 -0.000000 -0.000002 2.384454 7.019793 -52.813205 1.645852 4.071979 -44.002189 0.000000 -0.000000 0.000002 2.849662 7.336124 -58.333736 1.649619 4.075834 -44.055103 0.000001 0.000000 -0.000002 3.670997 7.753563 -67.379673 1.655995 4.082416 -44.144640 -0.000002 0.000001 -0.000000 -0.000003 0.000001 0.000002 -0.328881 15.691448 14.392486 -40.291313 -7.123743 53.073309 0.000003 37.777599 -0.000027 55.861573 -1.353428 -7.484037 -8.645192 5.612876 -8.726106 3.905492 -21.525041 -11.491980 0.000000 0.000005 0.000000 -1.244835 6.626282 8.391352 0.119401 -1.048884 12.988120 -0.000000 0.000000 0.000002 0.028092 -0.505491 0.708241 0.279294 -1.590077 19.923221 0.000000 0.000000 -0.000000 0.051755 -2.096142 -2.282694 0.227715 -1.439879 17.972316 -0.000000 0.000001 0.000002 -0.288868 -11.164720 -2.527861 0.052845 -0.700378 8.630478 0.000001 -0.000004 -0.000002 0.000002 -0.000002 -0.000000 -0.000000 0.000000 -0.000000 -0.000000 0.000000 -0.000000 -0.000000 0.000000 -0.000000 -0.000000 0.000000 -0.000000 -0.000000 0.000000 0.000001 0.000000 -0.000001 0.000001 -0.000000 0.000000 -0.000000 -0.000000 0.000000 0.000001 0.000000 -0.000001 0.000001 0.000001 0.000000 -0.000001 0.000001 0.000000 -0.000001 0.000001 0.000001 0.000000 
